<svg xmlns="http://www.w3.org/2000/svg" viewBox="0 0 3508 3508" role="img" aria-label="HashStream">
  <defs>
    <linearGradient id="s1" x1="0" y1="0" x2="1" y2="0" gradientUnits="userSpaceOnUse" gradientTransform="matrix(-1001.76,0,0,-1001.76,1741.51,1159.73)"><stop offset="0" stop-color="#fff"/><stop offset="1" stop-color="#8b5cf6"/></linearGradient>
    <linearGradient id="s2" x1="0" y1="0" x2="1" y2="0" gradientUnits="userSpaceOnUse" gradientTransform="matrix(-1001.76,0,0,-1001.76,1741.51,2510.38)"><stop offset="0" stop-color="#fff"/><stop offset="1" stop-color="#8b5cf6"/></linearGradient>
    <linearGradient id="s3" x1="0" y1="0" x2="1" y2="0" gradientUnits="userSpaceOnUse" gradientTransform="matrix(2586.27,0,0,468.198,20.8939,1835.06)"><stop offset="0" stop-color="#8b5cf6"/><stop offset="1" stop-color="#fff"/></linearGradient>
  </defs>
  <path d="M3507.87,704.45c0,-388.797 -315.653,-704.45 -704.45,-704.45l-2098.97,0c-388.797,0 -704.45,315.653 -704.45,704.45l0,2098.97c0,388.797 315.653,704.45 704.45,704.45l2098.97,0c388.797,0 704.45,-315.653 704.45,-704.45l0,-2098.97Z" fill="#6d28d9"/>
  <circle cx="2107.94" cy="1159.73" r="271.366" fill="#fff"/>
  <circle cx="2950.37" cy="1835.06" r="246.423" fill="#fff"/>
  <circle cx="2107.94" cy="2510.38" r="246.423" fill="#fff"/>
  <circle cx="2996.79" cy="1159.73" r="246.423" fill="#fff" fill-opacity="0.52"/>
  <circle cx="2996.79" cy="2510.38" r="246.423" fill="#fff" fill-opacity="0.52"/>
  <path d="M1741.52,913.307c-76.992,54.817 -127.247,144.798 -127.247,246.423c-0,101.626 50.255,191.607 127.247,246.424l-896.701,-0c-136.005,-0 -246.424,-110.419 -246.424,-246.424c0,-136.004 110.419,-246.423 246.424,-246.423l896.701,-0Z" fill="url(#s1)"/>
  <path d="M1741.52,2263.96c-76.992,54.817 -127.247,144.798 -127.247,246.423c-0,101.626 50.255,191.606 127.247,246.424l-896.701,-0c-136.005,-0 -246.424,-110.419 -246.424,-246.424c0,-136.004 110.419,-246.423 246.424,-246.423l896.701,-0Z" fill="url(#s2)"/>
  <path d="M2607.16,1588.63c-76.992,54.817 -127.247,144.798 -127.247,246.423c-0,101.626 50.255,191.606 127.247,246.424l-2088.65,-0c-136.005,-0 -246.424,-110.419 -246.424,-246.424c0,-136.004 110.419,-246.423 246.424,-246.423l2088.65,-0Z" fill="url(#s3)"/>
</svg>
