<?xml version="1.0" encoding="UTF-8" standalone="no"?><!DOCTYPE svg PUBLIC "-//W3C//DTD SVG 1.1//EN" "http://www.w3.org/Graphics/SVG/1.1/DTD/svg11.dtd"><svg width="100%" height="100%" viewBox="0 0 3508 3508" version="1.1" xmlns="http://www.w3.org/2000/svg" xmlns:xlink="http://www.w3.org/1999/xlink" xml:space="preserve" xmlns:serif="http://www.serif.com/" style="fill-rule:evenodd;clip-rule:evenodd;stroke-linejoin:round;stroke-miterlimit:2;"><path d="M3507.87,704.45c0,-388.797 -315.653,-704.45 -704.45,-704.45l-2098.97,0c-388.797,0 -704.45,315.653 -704.45,704.45l0,2098.97c0,388.797 315.653,704.45 704.45,704.45l2098.97,0c388.797,0 704.45,-315.653 704.45,-704.45l0,-2098.97Z" style="fill:url(#_Linear1);"/><g><circle cx="2793.18" cy="2372.71" r="206.67" style="fill:url(#_Linear2);"/><circle cx="2106.42" cy="1156.08" r="227.589" style="fill:#fff;"/><circle cx="2754.25" cy="1764.4" r="206.67" style="fill:#fff;"/><circle cx="2106.42" cy="2372.71" r="206.67" style="fill:#fff;"/><circle cx="2793.18" cy="1156.08" r="206.67" style="fill:url(#_Linear3);"/><path d="M1835.08,949.41c-64.572,45.974 -106.72,121.439 -106.72,206.67c0,85.232 42.148,160.696 106.72,206.671l-788.014,-0c-114.064,-0 -206.67,-92.606 -206.67,-206.671c0,-114.064 92.606,-206.67 206.67,-206.67l788.014,0Z" style="fill:url(#_Linear4);"/><path d="M1835.08,2166.04c-64.572,45.974 -106.72,121.439 -106.72,206.671c0,85.231 42.148,160.696 106.72,206.67l-788.014,-0c-114.064,-0 -206.67,-92.606 -206.67,-206.67c0,-114.065 92.606,-206.671 206.67,-206.671l788.014,0Z" style="fill:url(#_Linear5);"/><path d="M2502.37,1557.73c-64.571,45.974 -106.719,121.439 -106.719,206.67c-0,85.232 42.148,160.697 106.719,206.671l-1787.68,-0c-114.065,-0 -206.671,-92.606 -206.671,-206.671c0,-114.064 92.606,-206.67 206.671,-206.67l1787.68,0Z" style="fill:url(#_Linear6);"/></g><defs><linearGradient id="_Linear1" x1="0" y1="0" x2="1" y2="0" gradientUnits="userSpaceOnUse" gradientTransform="matrix(1753.94,1753.94,-1753.94,1753.94,0,0)"><stop offset="0" style="stop-color:#8b5cf6;stop-opacity:1"/><stop offset="1" style="stop-color:#6d28d9;stop-opacity:1"/></linearGradient><linearGradient id="_Linear2" x1="0" y1="0" x2="1" y2="0" gradientUnits="userSpaceOnUse" gradientTransform="matrix(413.341,9.17801e-14,-9.17801e-14,413.341,2586.51,2372.71)"><stop offset="0" style="stop-color:#fff;stop-opacity:0.2"/><stop offset="1" style="stop-color:#fff;stop-opacity:0.5"/></linearGradient><linearGradient id="_Linear3" x1="0" y1="0" x2="1" y2="0" gradientUnits="userSpaceOnUse" gradientTransform="matrix(413.341,9.17801e-14,-9.17801e-14,413.341,2586.51,1156.08)"><stop offset="0" style="stop-color:#fff;stop-opacity:0.2"/><stop offset="1" style="stop-color:#fff;stop-opacity:0.5"/></linearGradient><linearGradient id="_Linear4" x1="0" y1="0" x2="1" y2="0" gradientUnits="userSpaceOnUse" gradientTransform="matrix(-958.716,-5.43164e-13,5.43164e-13,-958.716,1799.11,1156.08)"><stop offset="0" style="stop-color:#fff;stop-opacity:1"/><stop offset="1" style="stop-color:#fff;stop-opacity:0.11"/></linearGradient><linearGradient id="_Linear5" x1="0" y1="0" x2="1" y2="0" gradientUnits="userSpaceOnUse" gradientTransform="matrix(-840.152,1.02889e-13,-1.02889e-13,-840.152,1799.11,2372.71)"><stop offset="0" style="stop-color:#fff;stop-opacity:1"/><stop offset="1" style="stop-color:#fff;stop-opacity:0.1"/></linearGradient><linearGradient id="_Linear6" x1="0" y1="0" x2="1" y2="0" gradientUnits="userSpaceOnUse" gradientTransform="matrix(2169.05,0,0,392.668,297.353,1764.4)"><stop offset="0" style="stop-color:#fff;stop-opacity:0.09"/><stop offset="1" style="stop-color:#fff;stop-opacity:1"/></linearGradient></defs></svg>