<?xml version="1.0" encoding="UTF-8" standalone="no"?><!DOCTYPE svg PUBLIC "-//W3C//DTD SVG 1.1//EN" "http://www.w3.org/Graphics/SVG/1.1/DTD/svg11.dtd"><svg width="100%" height="100%" viewBox="0 0 3508 3508" version="1.1" xmlns="http://www.w3.org/2000/svg" xmlns:xlink="http://www.w3.org/1999/xlink" xml:space="preserve" xmlns:serif="http://www.serif.com/" style="fill-rule:evenodd;clip-rule:evenodd;stroke-linejoin:round;stroke-miterlimit:2;"><path d="M3507.87,704.45c0,-388.797 -315.653,-704.45 -704.45,-704.45l-2098.97,0c-388.797,0 -704.45,315.653 -704.45,704.45l0,2098.97c0,388.797 315.653,704.45 704.45,704.45l2098.97,0c388.797,0 704.45,-315.653 704.45,-704.45l0,-2098.97Z" style="fill:#6d28d9;"/><g><circle cx="2096.12" cy="823.467" r="257.091" style="fill:#fff;"/><circle cx="2894.23" cy="1765.75" r="233.46" style="fill:#fff;"/><circle cx="2096.12" cy="2708.04" r="233.46" style="fill:#fff;"/><circle cx="2938.21" cy="823.467" r="233.46" style="fill:#fff;fill-opacity:0.52;"/><circle cx="2938.21" cy="2708.04" r="233.46" style="fill:#fff;fill-opacity:0.52;"/><path d="M1862.65,590.007c-72.942,51.934 -120.553,137.181 -120.553,233.46c0,96.28 47.611,181.527 120.553,233.46l-849.529,0c-128.85,0 -233.46,-104.61 -233.46,-233.46c0,-128.85 104.61,-233.46 233.46,-233.46l849.529,0Z" style="fill:url(#_Linear1);"/><path d="M1862.65,2474.58c-72.942,51.934 -120.553,137.181 -120.553,233.46c0,96.28 47.611,181.526 120.553,233.46l-849.529,0c-128.85,0 -233.46,-104.61 -233.46,-233.46c0,-128.85 104.61,-233.46 233.46,-233.46l849.529,0Z" style="fill:url(#_Linear2);"/><path d="M2682.77,1532.29c-72.942,51.934 -120.553,137.181 -120.553,233.46c0,96.28 47.611,181.527 120.553,233.46l-2139.83,0c-128.85,0 -233.46,-104.61 -233.46,-233.46c-0,-128.85 104.61,-233.46 233.46,-233.46l2139.83,0Z" style="fill:url(#_Linear3);"/></g><defs><linearGradient id="_Linear1" x1="0" y1="0" x2="1" y2="0" gradientUnits="userSpaceOnUse" gradientTransform="matrix(-949.057,1.16226e-13,-1.16226e-13,-949.057,1862.66,823.467)"><stop offset="0" style="stop-color:#fff;stop-opacity:1"/><stop offset="1" style="stop-color:#8b5cf6;stop-opacity:1"/></linearGradient><linearGradient id="_Linear2" x1="0" y1="0" x2="1" y2="0" gradientUnits="userSpaceOnUse" gradientTransform="matrix(-949.057,1.16226e-13,-1.16226e-13,-949.057,1862.66,2708.04)"><stop offset="0" style="stop-color:#fff;stop-opacity:1"/><stop offset="1" style="stop-color:#8b5cf6;stop-opacity:1"/></linearGradient><linearGradient id="_Linear3" x1="0" y1="0" x2="1" y2="0" gradientUnits="userSpaceOnUse" gradientTransform="matrix(2450.22,0,0,443.567,232.55,1765.75)"><stop offset="0" style="stop-color:#8b5cf6;stop-opacity:1"/><stop offset="1" style="stop-color:#fff;stop-opacity:1"/></linearGradient></defs></svg>