<?xml version="1.0" encoding="UTF-8" standalone="no"?><!DOCTYPE svg PUBLIC "-//W3C//DTD SVG 1.1//EN" "http://www.w3.org/Graphics/SVG/1.1/DTD/svg11.dtd"><svg width="100%" height="100%" viewBox="0 0 3508 3508" version="1.1" xmlns="http://www.w3.org/2000/svg" xmlns:xlink="http://www.w3.org/1999/xlink" xml:space="preserve" xmlns:serif="http://www.serif.com/" style="fill-rule:evenodd;clip-rule:evenodd;stroke-linejoin:round;stroke-miterlimit:2;"><path d="M3507.87,704.45c0,-388.797 -315.653,-704.45 -704.45,-704.45l-2098.97,0c-388.797,0 -704.45,315.653 -704.45,704.45l0,2098.97c0,388.797 315.653,704.45 704.45,704.45l2098.97,0c388.797,0 704.45,-315.653 704.45,-704.45l0,-2098.97Z" style="fill:#6d28d9;"/><g><circle cx="2107.94" cy="1159.73" r="271.366" style="fill:#fff;"/><circle cx="2950.37" cy="1835.06" r="246.423" style="fill:#fff;"/><circle cx="2107.94" cy="2510.38" r="246.423" style="fill:#fff;"/><circle cx="2996.79" cy="1159.73" r="246.423" style="fill:#fff;fill-opacity:0.52;"/><circle cx="2996.79" cy="2510.38" r="246.423" style="fill:#fff;fill-opacity:0.52;"/><path d="M1741.52,913.307c-76.992,54.817 -127.247,144.798 -127.247,246.423c-0,101.626 50.255,191.607 127.247,246.424l-896.701,-0c-136.005,-0 -246.424,-110.419 -246.424,-246.424c0,-136.004 110.419,-246.423 246.424,-246.423l896.701,-0Z" style="fill:url(#_Linear1);"/><path d="M1741.52,2263.96c-76.992,54.817 -127.247,144.798 -127.247,246.423c-0,101.626 50.255,191.606 127.247,246.424l-896.701,-0c-136.005,-0 -246.424,-110.419 -246.424,-246.424c0,-136.004 110.419,-246.423 246.424,-246.423l896.701,-0Z" style="fill:url(#_Linear2);"/><path d="M2607.16,1588.63c-76.992,54.817 -127.247,144.798 -127.247,246.423c-0,101.626 50.255,191.606 127.247,246.424l-2088.65,-0c-136.005,-0 -246.424,-110.419 -246.424,-246.424c0,-136.004 110.419,-246.423 246.424,-246.423l2088.65,-0Z" style="fill:url(#_Linear3);"/></g><defs><linearGradient id="_Linear1" x1="0" y1="0" x2="1" y2="0" gradientUnits="userSpaceOnUse" gradientTransform="matrix(-1001.76,1.2268e-13,-1.2268e-13,-1001.76,1741.51,1159.73)"><stop offset="0" style="stop-color:#fff;stop-opacity:1"/><stop offset="1" style="stop-color:#8b5cf6;stop-opacity:1"/></linearGradient><linearGradient id="_Linear2" x1="0" y1="0" x2="1" y2="0" gradientUnits="userSpaceOnUse" gradientTransform="matrix(-1001.76,1.2268e-13,-1.2268e-13,-1001.76,1741.51,2510.38)"><stop offset="0" style="stop-color:#fff;stop-opacity:1"/><stop offset="1" style="stop-color:#8b5cf6;stop-opacity:1"/></linearGradient><linearGradient id="_Linear3" x1="0" y1="0" x2="1" y2="0" gradientUnits="userSpaceOnUse" gradientTransform="matrix(2586.27,0,0,468.198,20.8939,1835.06)"><stop offset="0" style="stop-color:#8b5cf6;stop-opacity:1"/><stop offset="1" style="stop-color:#fff;stop-opacity:1"/></linearGradient></defs></svg>