<svg xmlns="http://www.w3.org/2000/svg" viewBox="0 0 1200 630" width="1200" height="630">
  <defs>
    <linearGradient id="badge" x1="0" y1="0" x2="1" y2="1">
      <stop offset="0" stop-color="#8b5cf6"/>
      <stop offset="1" stop-color="#6d28d9"/>
    </linearGradient>
    <linearGradient id="stream" x1="11" y1="0" x2="54" y2="0" gradientUnits="userSpaceOnUse">
      <stop offset="0" stop-color="#ffffff" stop-opacity="0.3"/>
      <stop offset="1" stop-color="#ffffff" stop-opacity="1"/>
    </linearGradient>
    <radialGradient id="glowP" cx="1010" cy="70" r="640" gradientUnits="userSpaceOnUse">
      <stop offset="0" stop-color="#7c58ed" stop-opacity="0.22"/>
      <stop offset="1" stop-color="#7c58ed" stop-opacity="0"/>
    </radialGradient>
    <radialGradient id="glowT" cx="120" cy="600" r="520" gradientUnits="userSpaceOnUse">
      <stop offset="0" stop-color="#34d399" stop-opacity="0.09"/>
      <stop offset="1" stop-color="#34d399" stop-opacity="0"/>
    </radialGradient>
  </defs>

  <rect width="1200" height="630" fill="#07070e"/>
  <rect width="1200" height="630" fill="url(#glowP)"/>
  <rect width="1200" height="630" fill="url(#glowT)"/>

  <g>
    <g opacity="0.35"><circle cx="820" cy="120" r="20" fill="#a78bfa" opacity="0.16"/><circle cx="820" cy="120" r="6" fill="#a78bfa"/></g>
    <g opacity="0.55"><circle cx="905" cy="120" r="20" fill="#a78bfa" opacity="0.16"/><circle cx="905" cy="120" r="8" fill="#a78bfa"/><circle cx="905" cy="120" r="3" fill="#fff"/></g>
    <g opacity="0.8"><circle cx="990" cy="120" r="22" fill="#a78bfa" opacity="0.16"/><circle cx="990" cy="120" r="9" fill="#a78bfa"/><circle cx="990" cy="120" r="3.5" fill="#fff"/></g>
    <g><circle cx="1080" cy="120" r="24" fill="#a78bfa" opacity="0.18"/><circle cx="1080" cy="120" r="11" fill="#a78bfa"/><circle cx="1080" cy="120" r="4.5" fill="#fff"/></g>

    <g opacity="0.35"><circle cx="845" cy="215" r="20" fill="#34d399" opacity="0.16"/><circle cx="845" cy="215" r="6" fill="#34d399"/></g>
    <g opacity="0.6"><circle cx="935" cy="215" r="20" fill="#34d399" opacity="0.16"/><circle cx="935" cy="215" r="8" fill="#34d399"/><circle cx="935" cy="215" r="3" fill="#fff"/></g>
    <g><circle cx="1055" cy="215" r="23" fill="#34d399" opacity="0.16"/><circle cx="1055" cy="215" r="10" fill="#34d399"/><circle cx="1055" cy="215" r="4" fill="#fff"/></g>

    <g opacity="0.4"><circle cx="870" cy="310" r="20" fill="#fb923c" opacity="0.16"/><circle cx="870" cy="310" r="7" fill="#fb923c"/></g>
    <g opacity="0.7"><circle cx="965" cy="310" r="21" fill="#fb923c" opacity="0.16"/><circle cx="965" cy="310" r="9" fill="#fb923c"/><circle cx="965" cy="310" r="3.5" fill="#fff"/></g>
    <g><circle cx="1075" cy="310" r="24" fill="#fb923c" opacity="0.18"/><circle cx="1075" cy="310" r="11" fill="#fb923c"/><circle cx="1075" cy="310" r="4.5" fill="#fff"/></g>

    <g opacity="0.4"><circle cx="830" cy="405" r="20" fill="#60a5fa" opacity="0.16"/><circle cx="830" cy="405" r="6" fill="#60a5fa"/></g>
    <g opacity="0.7"><circle cx="940" cy="405" r="21" fill="#60a5fa" opacity="0.16"/><circle cx="940" cy="405" r="9" fill="#60a5fa"/><circle cx="940" cy="405" r="3.5" fill="#fff"/></g>
    <g><circle cx="1045" cy="405" r="23" fill="#60a5fa" opacity="0.16"/><circle cx="1045" cy="405" r="10" fill="#60a5fa"/><circle cx="1045" cy="405" r="4" fill="#fff"/></g>

    <g opacity="0.4"><circle cx="880" cy="500" r="20" fill="#f472b6" opacity="0.16"/><circle cx="880" cy="500" r="7" fill="#f472b6"/></g>
    <g opacity="0.75"><circle cx="985" cy="500" r="22" fill="#f472b6" opacity="0.16"/><circle cx="985" cy="500" r="9" fill="#f472b6"/><circle cx="985" cy="500" r="3.5" fill="#fff"/></g>
    <g><circle cx="1085" cy="500" r="24" fill="#f472b6" opacity="0.18"/><circle cx="1085" cy="500" r="11" fill="#f472b6"/><circle cx="1085" cy="500" r="4.5" fill="#fff"/></g>
  </g>

  <rect x="1146" y="92" width="18" height="446" rx="9" fill="#a78bfa" opacity="0.22"/>
  <rect x="1150" y="92" width="10" height="446" rx="5" fill="#a78bfa"/>

  <g transform="translate(88 150) scale(2.0625)">
    <rect width="64" height="64" rx="16" fill="url(#badge)"/>
    <g fill="none" stroke="url(#stream)" stroke-width="5" stroke-linecap="round">
      <line x1="11" y1="21" x2="35" y2="21"/>
      <line x1="11" y1="32" x2="45" y2="32"/>
      <line x1="11" y1="43" x2="35" y2="43"/>
    </g>
    <g fill="#ffffff">
      <circle cx="44" cy="21" r="4.8"/>
      <circle cx="54" cy="32" r="4.8"/>
      <circle cx="44" cy="43" r="4.8"/>
    </g>
  </g>

  <text x="250" y="252" font-family="Avenir Next, Helvetica Neue, Arial, sans-serif" font-size="86" font-weight="700" letter-spacing="-2"><tspan fill="#eef0f6">Hash</tspan><tspan fill="#a78bfa">Stream</tspan></text>

  <text x="92" y="374" font-family="Avenir Next, Helvetica Neue, Arial, sans-serif" font-size="36" font-weight="600" fill="#c6cbd9">Every Hedera transaction, live.</text>
  <text x="92" y="424" font-family="Avenir Next, Helvetica Neue, Arial, sans-serif" font-size="29" font-weight="400" fill="#8b90a5">Real-time mainnet traffic, visualized.</text>

  <text x="92" y="516" font-family="Avenir Next, Helvetica Neue, Arial, sans-serif" font-size="30" font-weight="600" fill="#a78bfa">hashstream.app</text>
</svg>
