<svg xmlns="http://www.w3.org/2000/svg" viewBox="0 0 1200 630" width="1200" height="630">
  <defs>
    <style>@import url('https://fonts.googleapis.com/css2?family=Inter:wght@400;500;600&amp;family=Space+Grotesk:wght@500;600&amp;display=swap');</style>
    <radialGradient id="glowP" cx="1010" cy="70" r="640" gradientUnits="userSpaceOnUse">
      <stop offset="0" stop-color="#7c58ed" stop-opacity="0.22"/>
      <stop offset="1" stop-color="#7c58ed" stop-opacity="0"/>
    </radialGradient>
    <radialGradient id="glowT" cx="120" cy="600" r="520" gradientUnits="userSpaceOnUse">
      <stop offset="0" stop-color="#34d399" stop-opacity="0.09"/>
      <stop offset="1" stop-color="#34d399" stop-opacity="0"/>
    </radialGradient>
    <linearGradient id="wm" x1="440" y1="0" x2="735" y2="0" gradientUnits="userSpaceOnUse">
      <stop offset="0" stop-color="#8b5cf6"/>
      <stop offset="1" stop-color="#c4b5fd"/>
    </linearGradient>
    <!-- new mark stream gradients (mark-local 3508 space) -->
    <linearGradient id="s1" x1="0" y1="0" x2="1" y2="0" gradientUnits="userSpaceOnUse" gradientTransform="matrix(-1001.76,0,0,-1001.76,1741.51,1159.73)"><stop offset="0" stop-color="#fff"/><stop offset="1" stop-color="#8b5cf6"/></linearGradient>
    <linearGradient id="s2" x1="0" y1="0" x2="1" y2="0" gradientUnits="userSpaceOnUse" gradientTransform="matrix(-1001.76,0,0,-1001.76,1741.51,2510.38)"><stop offset="0" stop-color="#fff"/><stop offset="1" stop-color="#8b5cf6"/></linearGradient>
    <linearGradient id="s3" x1="0" y1="0" x2="1" y2="0" gradientUnits="userSpaceOnUse" gradientTransform="matrix(2586.27,0,0,468.198,20.8939,1835.06)"><stop offset="0" stop-color="#8b5cf6"/><stop offset="1" stop-color="#fff"/></linearGradient>
  </defs>

  <rect width="1200" height="630" fill="#07070e"/>
  <rect width="1200" height="630" fill="url(#glowP)"/>
  <rect width="1200" height="630" fill="url(#glowT)"/>

  <g>
    <g opacity="0.35"><circle cx="820" cy="120" r="20" fill="#a78bfa" opacity="0.16"/><circle cx="820" cy="120" r="6" fill="#a78bfa"/></g>
    <g opacity="0.55"><circle cx="905" cy="120" r="20" fill="#a78bfa" opacity="0.16"/><circle cx="905" cy="120" r="8" fill="#a78bfa"/><circle cx="905" cy="120" r="3" fill="#fff"/></g>
    <g opacity="0.8"><circle cx="990" cy="120" r="22" fill="#a78bfa" opacity="0.16"/><circle cx="990" cy="120" r="9" fill="#a78bfa"/><circle cx="990" cy="120" r="3.5" fill="#fff"/></g>
    <g><circle cx="1080" cy="120" r="24" fill="#a78bfa" opacity="0.18"/><circle cx="1080" cy="120" r="11" fill="#a78bfa"/><circle cx="1080" cy="120" r="4.5" fill="#fff"/></g>

    <g opacity="0.35"><circle cx="845" cy="215" r="20" fill="#34d399" opacity="0.16"/><circle cx="845" cy="215" r="6" fill="#34d399"/></g>
    <g opacity="0.6"><circle cx="935" cy="215" r="20" fill="#34d399" opacity="0.16"/><circle cx="935" cy="215" r="8" fill="#34d399"/><circle cx="935" cy="215" r="3" fill="#fff"/></g>
    <g><circle cx="1055" cy="215" r="23" fill="#34d399" opacity="0.16"/><circle cx="1055" cy="215" r="10" fill="#34d399"/><circle cx="1055" cy="215" r="4" fill="#fff"/></g>

    <g opacity="0.4"><circle cx="870" cy="310" r="20" fill="#fb923c" opacity="0.16"/><circle cx="870" cy="310" r="7" fill="#fb923c"/></g>
    <g opacity="0.7"><circle cx="965" cy="310" r="21" fill="#fb923c" opacity="0.16"/><circle cx="965" cy="310" r="9" fill="#fb923c"/><circle cx="965" cy="310" r="3.5" fill="#fff"/></g>
    <g><circle cx="1075" cy="310" r="24" fill="#fb923c" opacity="0.18"/><circle cx="1075" cy="310" r="11" fill="#fb923c"/><circle cx="1075" cy="310" r="4.5" fill="#fff"/></g>

    <g opacity="0.4"><circle cx="830" cy="405" r="20" fill="#60a5fa" opacity="0.16"/><circle cx="830" cy="405" r="6" fill="#60a5fa"/></g>
    <g opacity="0.7"><circle cx="940" cy="405" r="21" fill="#60a5fa" opacity="0.16"/><circle cx="940" cy="405" r="9" fill="#60a5fa"/><circle cx="940" cy="405" r="3.5" fill="#fff"/></g>
    <g><circle cx="1045" cy="405" r="23" fill="#60a5fa" opacity="0.16"/><circle cx="1045" cy="405" r="10" fill="#60a5fa"/><circle cx="1045" cy="405" r="4" fill="#fff"/></g>

    <g opacity="0.4"><circle cx="880" cy="500" r="20" fill="#f472b6" opacity="0.16"/><circle cx="880" cy="500" r="7" fill="#f472b6"/></g>
    <g opacity="0.75"><circle cx="985" cy="500" r="22" fill="#f472b6" opacity="0.16"/><circle cx="985" cy="500" r="9" fill="#f472b6"/><circle cx="985" cy="500" r="3.5" fill="#fff"/></g>
    <g><circle cx="1085" cy="500" r="24" fill="#f472b6" opacity="0.18"/><circle cx="1085" cy="500" r="11" fill="#f472b6"/><circle cx="1085" cy="500" r="4.5" fill="#fff"/></g>
  </g>

  <rect x="1146" y="92" width="18" height="446" rx="9" fill="#a78bfa" opacity="0.22"/>
  <rect x="1150" y="92" width="10" height="446" rx="5" fill="#a78bfa"/>

  <!-- HashStream mark (3508-unit artwork scaled to 132px at 88,150) -->
  <g transform="translate(88 150) scale(0.0376283)">
    <path d="M3507.87,704.45c0,-388.797 -315.653,-704.45 -704.45,-704.45l-2098.97,0c-388.797,0 -704.45,315.653 -704.45,704.45l0,2098.97c0,388.797 315.653,704.45 704.45,704.45l2098.97,0c388.797,0 704.45,-315.653 704.45,-704.45l0,-2098.97Z" fill="#6d28d9"/>
    <circle cx="2107.94" cy="1159.73" r="271.366" fill="#fff"/>
    <circle cx="2950.37" cy="1835.06" r="246.423" fill="#fff"/>
    <circle cx="2107.94" cy="2510.38" r="246.423" fill="#fff"/>
    <circle cx="2996.79" cy="1159.73" r="246.423" fill="#fff" fill-opacity="0.52"/>
    <circle cx="2996.79" cy="2510.38" r="246.423" fill="#fff" fill-opacity="0.52"/>
    <path d="M1741.52,913.307c-76.992,54.817 -127.247,144.798 -127.247,246.423c-0,101.626 50.255,191.607 127.247,246.424l-896.701,-0c-136.005,-0 -246.424,-110.419 -246.424,-246.424c0,-136.004 110.419,-246.423 246.424,-246.423l896.701,-0Z" fill="url(#s1)"/>
    <path d="M1741.52,2263.96c-76.992,54.817 -127.247,144.798 -127.247,246.423c-0,101.626 50.255,191.606 127.247,246.424l-896.701,-0c-136.005,-0 -246.424,-110.419 -246.424,-246.424c0,-136.004 110.419,-246.423 246.424,-246.423l896.701,-0Z" fill="url(#s2)"/>
    <path d="M2607.16,1588.63c-76.992,54.817 -127.247,144.798 -127.247,246.423c-0,101.626 50.255,191.606 127.247,246.424l-2088.65,-0c-136.005,-0 -246.424,-110.419 -246.424,-246.424c0,-136.004 110.419,-246.423 246.424,-246.423l2088.65,-0Z" fill="url(#s3)"/>
  </g>

  <text x="250" y="250" font-family="'Space Grotesk', sans-serif" font-size="86" letter-spacing="-1.5"><tspan font-weight="500" fill="#eef0f6">Hash</tspan><tspan font-weight="600" fill="url(#wm)">Stream</tspan></text>

  <text x="92" y="374" font-family="'Inter', sans-serif" font-size="36" font-weight="600" fill="#c6cbd9">Every Hedera transaction, live.</text>
  <text x="92" y="424" font-family="'Inter', sans-serif" font-size="29" font-weight="400" fill="#8b90a5">Real-time mainnet traffic, visualized.</text>

  <text x="92" y="516" font-family="'Inter', sans-serif" font-size="30" font-weight="600" fill="#a78bfa">hashstream.app</text>
</svg>
