<svg xmlns="http://www.w3.org/2000/svg" viewBox="0 0 1200 630" width="1200" height="630">
  <defs>
    <style>@import url('https://fonts.googleapis.com/css2?family=Inter:wght@400;500;600&amp;family=Space+Grotesk:wght@500;600&amp;display=swap');</style>
    <radialGradient id="glowP" cx="1010" cy="70" r="640" gradientUnits="userSpaceOnUse">
      <stop offset="0" stop-color="#7c58ed" stop-opacity="0.22"/>
      <stop offset="1" stop-color="#7c58ed" stop-opacity="0"/>
    </radialGradient>
    <radialGradient id="glowT" cx="120" cy="600" r="520" gradientUnits="userSpaceOnUse">
      <stop offset="0" stop-color="#34d399" stop-opacity="0.09"/>
      <stop offset="1" stop-color="#34d399" stop-opacity="0"/>
    </radialGradient>
    <linearGradient id="wm" x1="440" y1="0" x2="735" y2="0" gradientUnits="userSpaceOnUse">
      <stop offset="0" stop-color="#8b5cf6"/>
      <stop offset="1" stop-color="#c4b5fd"/>
    </linearGradient>
    <!-- new mark gradients (mark-local 3508 space) -->
    <linearGradient id="s1" x1="0" y1="0" x2="1" y2="0" gradientUnits="userSpaceOnUse" gradientTransform="matrix(1753.94,1753.94,-1753.94,1753.94,0,0)"><stop offset="0" stop-color="#8b5cf6"/><stop offset="1" stop-color="#6d28d9"/></linearGradient>
    <linearGradient id="s2" x1="0" y1="0" x2="1" y2="0" gradientUnits="userSpaceOnUse" gradientTransform="matrix(413.341,0,0,413.341,2586.51,2372.71)"><stop offset="0" stop-color="#fff" stop-opacity="0.2"/><stop offset="1" stop-color="#fff" stop-opacity="0.5"/></linearGradient>
    <linearGradient id="s3" x1="0" y1="0" x2="1" y2="0" gradientUnits="userSpaceOnUse" gradientTransform="matrix(413.341,0,0,413.341,2586.51,1156.08)"><stop offset="0" stop-color="#fff" stop-opacity="0.2"/><stop offset="1" stop-color="#fff" stop-opacity="0.5"/></linearGradient>
    <linearGradient id="s4" x1="0" y1="0" x2="1" y2="0" gradientUnits="userSpaceOnUse" gradientTransform="matrix(-958.716,0,0,-958.716,1799.11,1156.08)"><stop offset="0" stop-color="#fff" stop-opacity="1"/><stop offset="1" stop-color="#fff" stop-opacity="0.11"/></linearGradient>
    <linearGradient id="s5" x1="0" y1="0" x2="1" y2="0" gradientUnits="userSpaceOnUse" gradientTransform="matrix(-840.152,0,0,-840.152,1799.11,2372.71)"><stop offset="0" stop-color="#fff" stop-opacity="1"/><stop offset="1" stop-color="#fff" stop-opacity="0.1"/></linearGradient>
    <linearGradient id="s6" x1="0" y1="0" x2="1" y2="0" gradientUnits="userSpaceOnUse" gradientTransform="matrix(2169.05,0,0,392.668,297.353,1764.4)"><stop offset="0" stop-color="#fff" stop-opacity="0.09"/><stop offset="1" stop-color="#fff" stop-opacity="1"/></linearGradient>
  </defs>

  <rect width="1200" height="630" fill="#07070e"/>
  <rect width="1200" height="630" fill="url(#glowP)"/>
  <rect width="1200" height="630" fill="url(#glowT)"/>

  <g>
    <g opacity="0.35"><circle cx="820" cy="120" r="20" fill="#a78bfa" opacity="0.16"/><circle cx="820" cy="120" r="6" fill="#a78bfa"/></g>
    <g opacity="0.55"><circle cx="905" cy="120" r="20" fill="#a78bfa" opacity="0.16"/><circle cx="905" cy="120" r="8" fill="#a78bfa"/><circle cx="905" cy="120" r="3" fill="#fff"/></g>
    <g opacity="0.8"><circle cx="990" cy="120" r="22" fill="#a78bfa" opacity="0.16"/><circle cx="990" cy="120" r="9" fill="#a78bfa"/><circle cx="990" cy="120" r="3.5" fill="#fff"/></g>
    <g><circle cx="1080" cy="120" r="24" fill="#a78bfa" opacity="0.18"/><circle cx="1080" cy="120" r="11" fill="#a78bfa"/><circle cx="1080" cy="120" r="4.5" fill="#fff"/></g>

    <g opacity="0.35"><circle cx="845" cy="215" r="20" fill="#34d399" opacity="0.16"/><circle cx="845" cy="215" r="6" fill="#34d399"/></g>
    <g opacity="0.6"><circle cx="935" cy="215" r="20" fill="#34d399" opacity="0.16"/><circle cx="935" cy="215" r="8" fill="#34d399"/><circle cx="935" cy="215" r="3" fill="#fff"/></g>
    <g><circle cx="1055" cy="215" r="23" fill="#34d399" opacity="0.16"/><circle cx="1055" cy="215" r="10" fill="#34d399"/><circle cx="1055" cy="215" r="4" fill="#fff"/></g>

    <g opacity="0.4"><circle cx="870" cy="310" r="20" fill="#fb923c" opacity="0.16"/><circle cx="870" cy="310" r="7" fill="#fb923c"/></g>
    <g opacity="0.7"><circle cx="965" cy="310" r="21" fill="#fb923c" opacity="0.16"/><circle cx="965" cy="310" r="9" fill="#fb923c"/><circle cx="965" cy="310" r="3.5" fill="#fff"/></g>
    <g><circle cx="1075" cy="310" r="24" fill="#fb923c" opacity="0.18"/><circle cx="1075" cy="310" r="11" fill="#fb923c"/><circle cx="1075" cy="310" r="4.5" fill="#fff"/></g>

    <g opacity="0.4"><circle cx="830" cy="405" r="20" fill="#60a5fa" opacity="0.16"/><circle cx="830" cy="405" r="6" fill="#60a5fa"/></g>
    <g opacity="0.7"><circle cx="940" cy="405" r="21" fill="#60a5fa" opacity="0.16"/><circle cx="940" cy="405" r="9" fill="#60a5fa"/><circle cx="940" cy="405" r="3.5" fill="#fff"/></g>
    <g><circle cx="1045" cy="405" r="23" fill="#60a5fa" opacity="0.16"/><circle cx="1045" cy="405" r="10" fill="#60a5fa"/><circle cx="1045" cy="405" r="4" fill="#fff"/></g>

    <g opacity="0.4"><circle cx="880" cy="500" r="20" fill="#f472b6" opacity="0.16"/><circle cx="880" cy="500" r="7" fill="#f472b6"/></g>
    <g opacity="0.75"><circle cx="985" cy="500" r="22" fill="#f472b6" opacity="0.16"/><circle cx="985" cy="500" r="9" fill="#f472b6"/><circle cx="985" cy="500" r="3.5" fill="#fff"/></g>
    <g><circle cx="1085" cy="500" r="24" fill="#f472b6" opacity="0.18"/><circle cx="1085" cy="500" r="11" fill="#f472b6"/><circle cx="1085" cy="500" r="4.5" fill="#fff"/></g>
  </g>

  <rect x="1146" y="92" width="18" height="446" rx="9" fill="#a78bfa" opacity="0.22"/>
  <rect x="1150" y="92" width="10" height="446" rx="5" fill="#a78bfa"/>

  <!-- HashStream mark (3508-unit artwork scaled to 132px at 88,150) -->
  <g transform="translate(88 150) scale(0.0376283)">
    <path d="M3507.87,704.45c0,-388.797 -315.653,-704.45 -704.45,-704.45l-2098.97,0c-388.797,0 -704.45,315.653 -704.45,704.45l0,2098.97c0,388.797 315.653,704.45 704.45,704.45l2098.97,0c388.797,0 704.45,-315.653 704.45,-704.45l0,-2098.97Z" fill="url(#s1)"/>
    <circle cx="2793.18" cy="2372.71" r="206.67" fill="url(#s2)"/>
    <circle cx="2106.42" cy="1156.08" r="227.589" fill="#fff"/>
    <circle cx="2754.25" cy="1764.4" r="206.67" fill="#fff"/>
    <circle cx="2106.42" cy="2372.71" r="206.67" fill="#fff"/>
    <circle cx="2793.18" cy="1156.08" r="206.67" fill="url(#s3)"/>
    <path d="M1835.08,949.41c-64.572,45.974 -106.72,121.439 -106.72,206.67c0,85.232 42.148,160.696 106.72,206.671l-788.014,-0c-114.064,-0 -206.67,-92.606 -206.67,-206.671c0,-114.064 92.606,-206.67 206.67,-206.67l788.014,0Z" fill="url(#s4)"/>
    <path d="M1835.08,2166.04c-64.572,45.974 -106.72,121.439 -106.72,206.671c0,85.231 42.148,160.696 106.72,206.67l-788.014,-0c-114.064,-0 -206.67,-92.606 -206.67,-206.67c0,-114.065 92.606,-206.671 206.67,-206.671l788.014,0Z" fill="url(#s5)"/>
    <path d="M2502.37,1557.73c-64.571,45.974 -106.719,121.439 -106.719,206.67c-0,85.232 42.148,160.697 106.719,206.671l-1787.68,-0c-114.065,-0 -206.671,-92.606 -206.671,-206.671c0,-114.064 92.606,-206.67 206.671,-206.67l1787.68,0Z" fill="url(#s6)"/>
  </g>

  <text x="250" y="250" font-family="'Space Grotesk', sans-serif" font-size="86" letter-spacing="-1.5"><tspan font-weight="500" fill="#eef0f6">Hash</tspan><tspan font-weight="600" fill="url(#wm)">Stream</tspan></text>

  <text x="92" y="374" font-family="'Inter', sans-serif" font-size="36" font-weight="600" fill="#c6cbd9">Every Hedera transaction, live.</text>
  <text x="92" y="424" font-family="'Inter', sans-serif" font-size="29" font-weight="400" fill="#8b90a5">Real-time mainnet traffic, visualized.</text>

  <text x="92" y="516" font-family="'Inter', sans-serif" font-size="30" font-weight="600" fill="#a78bfa">hashstream.app</text>
</svg>
